<svg width="115" height="115" xmlns="http://www.w3.org/2000/svg" xmlns:xlink="http://www.w3.org/1999/xlink" overflow="hidden"><defs><clipPath id="clip0"><rect x="264" y="293" width="115" height="115"/></clipPath><clipPath id="clip1"><rect x="265" y="294" width="114" height="114"/></clipPath><clipPath id="clip2"><rect x="265" y="294" width="114" height="114"/></clipPath><clipPath id="clip3"><rect x="265" y="294" width="114" height="114"/></clipPath></defs><g clip-path="url(#clip0)" transform="translate(-264 -293)"><g clip-path="url(#clip1)"><g clip-path="url(#clip2)"><g clip-path="url(#clip3)"><path d="M341 329.625C341 340.118 332.493 348.625 322 348.625 311.507 348.625 303 340.118 303 329.625 303 319.132 311.507 310.625 322 310.625 332.493 310.625 341 319.132 341 329.625Z"/><path d="M360 391.375 360 372.375C360 369.525 358.575 366.675 356.2 364.775 350.975 360.5 344.325 357.65 337.675 355.75 332.925 354.325 327.7 353.375 322 353.375 316.775 353.375 311.55 354.325 306.325 355.75 299.675 357.65 293.025 360.975 287.8 364.775 285.425 366.675 284 369.525 284 372.375L284 391.375 360 391.375Z"/></g></g></g><path d="M284.47 322.969 289.857 318.084 322.5 354.087 355.143 318.084 360.53 322.969 327.408 359.5 360.53 396.032 355.143 400.916 322.5 364.913 289.857 400.916 284.47 396.032 317.592 359.5Z" stroke="#3B3838" stroke-width="1.33333" stroke-miterlimit="8" fill="#3B3838" fill-rule="evenodd"/></g></svg>