<svg width="79" height="84" xmlns="http://www.w3.org/2000/svg" xmlns:xlink="http://www.w3.org/1999/xlink" overflow="hidden"><defs><clipPath id="clip0"><rect x="236" y="120" width="79" height="84"/></clipPath></defs><g clip-path="url(#clip0)" transform="translate(-236 -120)"><path d="M295 140.5C295 151.27 286.27 160 275.5 160 264.73 160 256 151.27 256 140.5 256 129.73 264.73 121 275.5 121 286.27 121 295 129.73 295 140.5Z" fill-rule="evenodd"/><path d="M314 203 314 183.5C314 180.575 312.556 177.65 310.15 175.7 304.856 171.312 298.119 168.388 291.381 166.438 286.569 164.975 281.275 164 275.5 164 270.206 164 264.912 164.975 259.619 166.438 252.881 168.388 246.144 171.8 240.85 175.7 238.444 177.65 237 180.575 237 183.5L237 203 314 203Z" fill-rule="evenodd"/></g></svg>