<svg width="198" height="117" xmlns="http://www.w3.org/2000/svg" xmlns:xlink="http://www.w3.org/1999/xlink" overflow="hidden"><defs><clipPath id="clip0"><rect x="62" y="113" width="198" height="117"/></clipPath><clipPath id="clip1"><rect x="62" y="113" width="116" height="116"/></clipPath><clipPath id="clip2"><rect x="62" y="113" width="116" height="116"/></clipPath><clipPath id="clip3"><rect x="62" y="113" width="116" height="116"/></clipPath><clipPath id="clip4"><rect x="143" y="113" width="116" height="116"/></clipPath><clipPath id="clip5"><rect x="143" y="113" width="116" height="116"/></clipPath><clipPath id="clip6"><rect x="143" y="113" width="116" height="116"/></clipPath></defs><g clip-path="url(#clip0)" transform="translate(-62 -113)"><g clip-path="url(#clip1)"><g clip-path="url(#clip2)"><g clip-path="url(#clip3)"><path d="M139.333 149.25C139.333 159.928 130.678 168.583 120 168.583 109.322 168.583 100.667 159.928 100.667 149.25 100.667 138.572 109.322 129.917 120 129.917 130.678 129.917 139.333 138.572 139.333 149.25Z"/><path d="M158.667 212.083 158.667 192.75C158.667 189.85 157.217 186.95 154.8 185.017 149.483 180.667 142.717 177.767 135.95 175.833 131.117 174.383 125.8 173.417 120 173.417 114.683 173.417 109.367 174.383 104.05 175.833 97.2833 177.767 90.5167 181.15 85.2 185.017 82.7833 186.95 81.3333 189.85 81.3333 192.75L81.3333 212.083 158.667 212.083Z"/></g></g></g><g clip-path="url(#clip4)"><g clip-path="url(#clip5)"><g clip-path="url(#clip6)"><path d="M220.333 149.25C220.333 159.928 211.678 168.583 201 168.583 190.322 168.583 181.667 159.928 181.667 149.25 181.667 138.572 190.322 129.917 201 129.917 211.678 129.917 220.333 138.572 220.333 149.25Z"/><path d="M239.667 212.083 239.667 192.75C239.667 189.85 238.217 186.95 235.8 185.017 230.483 180.667 223.717 177.767 216.95 175.833 212.117 174.383 206.8 173.417 201 173.417 195.683 173.417 190.367 174.383 185.05 175.833 178.283 177.767 171.517 181.15 166.2 185.017 163.783 186.95 162.333 189.85 162.333 192.75L162.333 212.083 239.667 212.083Z"/></g></g></g></g></svg>