<svg width="277" height="117" xmlns="http://www.w3.org/2000/svg" xmlns:xlink="http://www.w3.org/1999/xlink" overflow="hidden"><defs><clipPath id="clip0"><rect x="106" y="191" width="277" height="117"/></clipPath><clipPath id="clip1"><rect x="107" y="192" width="116" height="116"/></clipPath><clipPath id="clip2"><rect x="107" y="192" width="116" height="116"/></clipPath><clipPath id="clip3"><rect x="107" y="192" width="116" height="116"/></clipPath><clipPath id="clip4"><rect x="187" y="192" width="116" height="116"/></clipPath><clipPath id="clip5"><rect x="187" y="192" width="116" height="116"/></clipPath><clipPath id="clip6"><rect x="187" y="192" width="116" height="116"/></clipPath><clipPath id="clip7"><rect x="267" y="192" width="116" height="116"/></clipPath><clipPath id="clip8"><rect x="267" y="192" width="116" height="116"/></clipPath><clipPath id="clip9"><rect x="267" y="192" width="116" height="116"/></clipPath></defs><g clip-path="url(#clip0)" transform="translate(-106 -191)"><g clip-path="url(#clip1)"><g clip-path="url(#clip2)"><g clip-path="url(#clip3)"><path d="M184.333 228.25C184.333 238.928 175.678 247.583 165 247.583 154.322 247.583 145.667 238.928 145.667 228.25 145.667 217.572 154.322 208.917 165 208.917 175.678 208.917 184.333 217.572 184.333 228.25Z"/><path d="M203.667 291.083 203.667 271.75C203.667 268.85 202.217 265.95 199.8 264.017 194.483 259.667 187.717 256.767 180.95 254.833 176.117 253.383 170.8 252.417 165 252.417 159.683 252.417 154.367 253.383 149.05 254.833 142.283 256.767 135.517 260.15 130.2 264.017 127.783 265.95 126.333 268.85 126.333 271.75L126.333 291.083 203.667 291.083Z"/></g></g></g><g clip-path="url(#clip4)"><g clip-path="url(#clip5)"><g clip-path="url(#clip6)"><path d="M264.333 228.25C264.333 238.928 255.678 247.583 245 247.583 234.322 247.583 225.667 238.928 225.667 228.25 225.667 217.572 234.322 208.917 245 208.917 255.678 208.917 264.333 217.572 264.333 228.25Z"/><path d="M283.667 291.083 283.667 271.75C283.667 268.85 282.217 265.95 279.8 264.017 274.483 259.667 267.717 256.767 260.95 254.833 256.117 253.383 250.8 252.417 245 252.417 239.683 252.417 234.367 253.383 229.05 254.833 222.283 256.767 215.517 260.15 210.2 264.017 207.783 265.95 206.333 268.85 206.333 271.75L206.333 291.083 283.667 291.083Z"/></g></g></g><g clip-path="url(#clip7)"><g clip-path="url(#clip8)"><g clip-path="url(#clip9)"><path d="M344.333 228.25C344.333 238.928 335.677 247.583 325 247.583 314.323 247.583 305.667 238.928 305.667 228.25 305.667 217.572 314.323 208.917 325 208.917 335.677 208.917 344.333 217.572 344.333 228.25Z"/><path d="M363.667 291.083 363.667 271.75C363.667 268.85 362.217 265.95 359.8 264.017 354.483 259.667 347.717 256.767 340.95 254.833 336.117 253.383 330.8 252.417 325 252.417 319.683 252.417 314.367 253.383 309.05 254.833 302.283 256.767 295.517 260.15 290.2 264.017 287.783 265.95 286.333 268.85 286.333 271.75L286.333 291.083 363.667 291.083Z"/></g></g></g></g></svg>