<svg width="359" height="118" xmlns="http://www.w3.org/2000/svg" xmlns:xlink="http://www.w3.org/1999/xlink" overflow="hidden"><defs><clipPath id="clip0"><rect x="314" y="199" width="359" height="118"/></clipPath><clipPath id="clip1"><rect x="556" y="200" width="116" height="116"/></clipPath><clipPath id="clip2"><rect x="556" y="200" width="116" height="116"/></clipPath><clipPath id="clip3"><rect x="556" y="200" width="116" height="116"/></clipPath><clipPath id="clip4"><rect x="476" y="200" width="116" height="116"/></clipPath><clipPath id="clip5"><rect x="476" y="200" width="116" height="116"/></clipPath><clipPath id="clip6"><rect x="476" y="200" width="116" height="116"/></clipPath><clipPath id="clip7"><rect x="395" y="200" width="116" height="116"/></clipPath><clipPath id="clip8"><rect x="395" y="200" width="116" height="116"/></clipPath><clipPath id="clip9"><rect x="395" y="200" width="116" height="116"/></clipPath><clipPath id="clip10"><rect x="315" y="200" width="116" height="116"/></clipPath><clipPath id="clip11"><rect x="315" y="200" width="116" height="116"/></clipPath><clipPath id="clip12"><rect x="315" y="200" width="116" height="116"/></clipPath></defs><g clip-path="url(#clip0)" transform="translate(-314 -199)"><g clip-path="url(#clip1)"><g clip-path="url(#clip2)"><g clip-path="url(#clip3)"><path d="M633.333 236.25C633.333 246.928 624.677 255.583 614 255.583 603.323 255.583 594.667 246.928 594.667 236.25 594.667 225.572 603.323 216.917 614 216.917 624.677 216.917 633.333 225.572 633.333 236.25Z"/><path d="M652.667 299.083 652.667 279.75C652.667 276.85 651.217 273.95 648.8 272.017 643.483 267.667 636.717 264.767 629.95 262.833 625.117 261.383 619.8 260.417 614 260.417 608.683 260.417 603.367 261.383 598.05 262.833 591.283 264.767 584.517 268.15 579.2 272.017 576.783 273.95 575.333 276.85 575.333 279.75L575.333 299.083 652.667 299.083Z"/></g></g></g><g clip-path="url(#clip4)"><g clip-path="url(#clip5)"><g clip-path="url(#clip6)"><path d="M553.333 236.25C553.333 246.928 544.677 255.583 534 255.583 523.323 255.583 514.667 246.928 514.667 236.25 514.667 225.572 523.323 216.917 534 216.917 544.677 216.917 553.333 225.572 553.333 236.25Z"/><path d="M572.667 299.083 572.667 279.75C572.667 276.85 571.217 273.95 568.8 272.017 563.483 267.667 556.717 264.767 549.95 262.833 545.117 261.383 539.8 260.417 534 260.417 528.683 260.417 523.367 261.383 518.05 262.833 511.283 264.767 504.517 268.15 499.2 272.017 496.783 273.95 495.333 276.85 495.333 279.75L495.333 299.083 572.667 299.083Z"/></g></g></g><g clip-path="url(#clip7)"><g clip-path="url(#clip8)"><g clip-path="url(#clip9)"><path d="M472.333 236.25C472.333 246.928 463.677 255.583 453 255.583 442.323 255.583 433.667 246.928 433.667 236.25 433.667 225.572 442.323 216.917 453 216.917 463.677 216.917 472.333 225.572 472.333 236.25Z"/><path d="M491.667 299.083 491.667 279.75C491.667 276.85 490.217 273.95 487.8 272.017 482.483 267.667 475.717 264.767 468.95 262.833 464.117 261.383 458.8 260.417 453 260.417 447.683 260.417 442.367 261.383 437.05 262.833 430.283 264.767 423.517 268.15 418.2 272.017 415.783 273.95 414.333 276.85 414.333 279.75L414.333 299.083 491.667 299.083Z"/></g></g></g><g clip-path="url(#clip10)"><g clip-path="url(#clip11)"><g clip-path="url(#clip12)"><path d="M392.333 236.25C392.333 246.928 383.677 255.583 373 255.583 362.323 255.583 353.667 246.928 353.667 236.25 353.667 225.572 362.323 216.917 373 216.917 383.677 216.917 392.333 225.572 392.333 236.25Z"/><path d="M411.667 299.083 411.667 279.75C411.667 276.85 410.217 273.95 407.8 272.017 402.483 267.667 395.717 264.767 388.95 262.833 384.117 261.383 378.8 260.417 373 260.417 367.683 260.417 362.367 261.383 357.05 262.833 350.283 264.767 343.517 268.15 338.2 272.017 335.783 273.95 334.333 276.85 334.333 279.75L334.333 299.083 411.667 299.083Z"/></g></g></g></g></svg>