<svg width="362" height="183" xmlns="http://www.w3.org/2000/svg" xmlns:xlink="http://www.w3.org/1999/xlink" overflow="hidden"><defs><clipPath id="clip0"><rect x="150" y="42" width="362" height="183"/></clipPath><clipPath id="clip1"><rect x="151" y="43" width="116" height="116"/></clipPath><clipPath id="clip2"><rect x="151" y="43" width="116" height="116"/></clipPath><clipPath id="clip3"><rect x="151" y="43" width="116" height="116"/></clipPath><clipPath id="clip4"><rect x="273" y="43" width="116" height="116"/></clipPath><clipPath id="clip5"><rect x="273" y="43" width="116" height="116"/></clipPath><clipPath id="clip6"><rect x="273" y="43" width="116" height="116"/></clipPath><clipPath id="clip7"><rect x="396" y="42" width="116" height="116"/></clipPath><clipPath id="clip8"><rect x="396" y="42" width="116" height="116"/></clipPath><clipPath id="clip9"><rect x="396" y="42" width="116" height="116"/></clipPath><clipPath id="clip10"><rect x="212" y="108" width="116" height="116"/></clipPath><clipPath id="clip11"><rect x="212" y="108" width="116" height="116"/></clipPath><clipPath id="clip12"><rect x="212" y="108" width="116" height="116"/></clipPath><clipPath id="clip13"><rect x="334" y="108" width="116" height="116"/></clipPath><clipPath id="clip14"><rect x="334" y="108" width="116" height="116"/></clipPath><clipPath id="clip15"><rect x="334" y="108" width="116" height="116"/></clipPath></defs><g clip-path="url(#clip0)" transform="translate(-150 -42)"><rect x="460.738" y="177.453" width="15.5231" height="44.094" stroke="#000000" stroke-width="1.33333" stroke-miterlimit="8"/><g clip-path="url(#clip1)"><g clip-path="url(#clip2)"><g clip-path="url(#clip3)"><path d="M228.333 79.25C228.333 89.9275 219.678 98.5833 209 98.5833 198.322 98.5833 189.667 89.9275 189.667 79.25 189.667 68.5725 198.322 59.9167 209 59.9167 219.678 59.9167 228.333 68.5725 228.333 79.25Z"/><path d="M247.667 142.083 247.667 122.75C247.667 119.85 246.217 116.95 243.8 115.017 238.483 110.667 231.717 107.767 224.95 105.833 220.117 104.383 214.8 103.417 209 103.417 203.683 103.417 198.367 104.383 193.05 105.833 186.283 107.767 179.517 111.15 174.2 115.017 171.783 116.95 170.333 119.85 170.333 122.75L170.333 142.083 247.667 142.083Z"/></g></g></g><g clip-path="url(#clip4)"><g clip-path="url(#clip5)"><g clip-path="url(#clip6)"><path d="M350.333 79.25C350.333 89.9275 341.677 98.5833 331 98.5833 320.323 98.5833 311.667 89.9275 311.667 79.25 311.667 68.5725 320.323 59.9167 331 59.9167 341.677 59.9167 350.333 68.5725 350.333 79.25Z"/><path d="M369.667 142.083 369.667 122.75C369.667 119.85 368.217 116.95 365.8 115.017 360.483 110.667 353.717 107.767 346.95 105.833 342.117 104.383 336.8 103.417 331 103.417 325.683 103.417 320.367 104.383 315.05 105.833 308.283 107.767 301.517 111.15 296.2 115.017 293.783 116.95 292.333 119.85 292.333 122.75L292.333 142.083 369.667 142.083Z"/></g></g></g><g clip-path="url(#clip7)"><g clip-path="url(#clip8)"><g clip-path="url(#clip9)"><path d="M473.333 78.25C473.333 88.9275 464.677 97.5833 454 97.5833 443.323 97.5833 434.667 88.9275 434.667 78.25 434.667 67.5725 443.323 58.9167 454 58.9167 464.677 58.9167 473.333 67.5725 473.333 78.25Z"/><path d="M492.667 141.083 492.667 121.75C492.667 118.85 491.217 115.95 488.8 114.017 483.483 109.667 476.717 106.767 469.95 104.833 465.117 103.383 459.8 102.417 454 102.417 448.683 102.417 443.367 103.383 438.05 104.833 431.283 106.767 424.517 110.15 419.2 114.017 416.783 115.95 415.333 118.85 415.333 121.75L415.333 141.083 492.667 141.083Z"/></g></g></g><g clip-path="url(#clip10)"><g clip-path="url(#clip11)"><g clip-path="url(#clip12)"><path d="M289.333 144.25C289.333 154.928 280.677 163.583 270 163.583 259.323 163.583 250.667 154.928 250.667 144.25 250.667 133.572 259.323 124.917 270 124.917 280.677 124.917 289.333 133.572 289.333 144.25Z"/><path d="M308.667 207.083 308.667 187.75C308.667 184.85 307.217 181.95 304.8 180.017 299.483 175.667 292.717 172.767 285.95 170.833 281.117 169.383 275.8 168.417 270 168.417 264.683 168.417 259.367 169.383 254.05 170.833 247.283 172.767 240.517 176.15 235.2 180.017 232.783 181.95 231.333 184.85 231.333 187.75L231.333 207.083 308.667 207.083Z"/></g></g></g><g clip-path="url(#clip13)"><g clip-path="url(#clip14)"><g clip-path="url(#clip15)"><path d="M411.333 144.25C411.333 154.928 402.677 163.583 392 163.583 381.323 163.583 372.667 154.928 372.667 144.25 372.667 133.572 381.323 124.917 392 124.917 402.677 124.917 411.333 133.572 411.333 144.25Z"/><path d="M430.667 207.083 430.667 187.75C430.667 184.85 429.217 181.95 426.8 180.017 421.483 175.667 414.717 172.767 407.95 170.833 403.117 169.383 397.8 168.417 392 168.417 386.683 168.417 381.367 169.383 376.05 170.833 369.283 172.767 362.517 176.15 357.2 180.017 354.783 181.95 353.333 184.85 353.333 187.75L353.333 207.083 430.667 207.083Z"/></g></g></g><rect x="446.453" y="191.738" width="44.094" height="15.5231" stroke="#000000" stroke-width="1.33333" stroke-miterlimit="8"/></g></svg>